<svg width="55" height="60" viewBox="0 0 55 60" fill="none" xmlns="http://www.w3.org/2000/svg">
<g id="image 2 (Traced)">
<path fill-rule="evenodd" clip-rule="evenodd" d="M25.8097 25.6991L26.531 25.7699L26.5423 25.7717C26.2862 25.7328 26.0445 25.6963 25.8097 25.6991ZM25.4119 30.1188C24.9167 29.9116 24.5113 29.2092 24.5113 29.2092C24.5113 29.2092 25.5833 29.1959 27.4977 29.1959C29.4121 29.1959 30.4841 29.2092 30.4841 29.2092C30.4841 29.2092 30.0787 29.9116 29.5835 30.1188C29.0883 30.3259 28.1495 30.4953 27.4977 30.4953C26.8459 30.4953 25.9071 30.3259 25.4119 30.1188ZM10.2284 59.0823V48.1673V37.2523H27.4977H44.767V48.1673V59.0823H27.4977H10.2284Z" fill="black"/>
<path fill-rule="evenodd" clip-rule="evenodd" d="M25.6505 0.863381C24.9203 0.973311 23.7299 1.26048 23.0051 1.50113C22.2805 1.74204 20.9582 2.41098 20.067 2.98739C19.1757 3.56381 17.8271 4.67039 17.0701 5.44639C16.3129 6.2224 15.2396 7.52726 14.6846 8.34615C14.1294 9.16478 13.3179 10.5442 12.8811 11.4112C12.4443 12.2782 11.6686 14.1906 11.1573 15.6608C10.6457 17.1312 9.99387 19.4808 9.70847 20.8821C9.36465 22.5713 9.19247 24.424 9.19819 26.378C9.20442 28.5579 9.32933 29.6645 9.67783 30.6253C9.937 31.34 10.2229 32.1001 10.313 32.3145C10.4353 32.6056 9.95648 32.9507 8.42197 33.6768C7.15573 34.2761 5.76509 35.2072 4.79827 36.1028C3.93558 36.9022 2.87449 38.1774 2.44029 38.9368C2.00635 39.6962 1.41894 41.2253 1.13536 42.3348C0.700117 44.0378 0.619873 45.2166 0.619873 49.8981V55.444H4.51209H8.40432L8.47235 45.5035L8.54039 35.563H13.2847H18.0287L17.3098 35.0505C16.9143 34.7686 15.9218 33.906 15.1043 33.1334C14.2868 32.3605 13.3226 31.1357 12.9619 30.4111C12.563 29.6104 12.3059 28.6512 12.3059 27.9651C12.3059 27.3347 12.5482 26.3531 12.8546 25.7421C13.1564 25.1405 13.6441 24.3847 13.9386 24.0633C14.233 23.7418 14.5517 23.4785 14.6467 23.4785C14.7418 23.4785 14.955 23.7764 15.1207 24.1405C15.2866 24.5045 15.4222 25.1231 15.4222 25.515C15.4222 25.9066 15.6302 26.6322 15.8847 27.127C16.1389 27.6216 17.3509 29.3152 18.5779 30.8906C20.3176 33.124 21.1164 33.9253 22.2055 34.529C23.5811 35.2914 23.6613 35.3031 27.4977 35.3031C31.3356 35.3031 31.4136 35.2917 32.7925 34.5274C33.9045 33.9112 34.6916 33.1103 36.6234 30.6292C37.9603 28.9119 39.1614 27.1559 39.292 26.7271C39.4226 26.2982 39.5992 25.5293 39.6847 25.0181C39.7698 24.5069 39.9911 23.8811 40.1762 23.6277C40.4824 23.2088 40.605 23.3005 41.5204 24.6306C42.3382 25.8188 42.5482 26.3773 42.6365 27.5987C42.7254 28.8285 42.6267 29.337 42.0959 30.3841C41.7388 31.0884 40.7621 32.3114 39.9256 33.1014C39.0892 33.8915 38.0811 34.7686 37.6856 35.0505L36.9667 35.563H41.7107H46.455L46.523 45.5035L46.5911 55.444H50.4833H54.3755V49.8082C54.3755 45.4999 54.2768 43.7706 53.9564 42.4665C53.726 41.5283 53.1729 40.059 52.7275 39.2014C52.2822 38.3438 51.3177 37.0483 50.5841 36.3224C49.8504 35.5966 48.7379 34.7072 48.1123 34.3457C47.4865 33.9845 46.4137 33.4785 45.7284 33.2215C44.765 32.86 44.5237 32.6602 44.6647 32.3395C44.7647 32.1113 45.0696 31.2942 45.3417 30.5234C45.7102 29.4805 45.8369 28.4137 45.8369 26.3526C45.8369 24.5807 45.6445 22.6381 45.3025 20.9587C45.0085 19.5151 44.3497 17.1312 43.8381 15.6608C43.3268 14.1906 42.5511 12.2782 42.1143 11.4112C41.6775 10.5442 40.866 9.16478 40.3108 8.34615C39.7558 7.52726 38.6825 6.2224 37.9253 5.44639C37.1683 4.67039 35.8028 3.5529 34.8908 2.96296C33.9788 2.37303 32.4679 1.66823 31.5338 1.39666C30.5994 1.12508 29.1922 0.849087 28.4066 0.783337C27.6211 0.717587 26.3808 0.753711 25.6505 0.863381ZM19.5772 21.0603C19.5772 21.7485 19.7751 22.2275 20.275 22.7496C20.9013 23.4039 21.148 23.4785 22.6851 23.4785H24.3978L25.9401 21.9187L27.4826 20.3589L29.0553 21.9187L30.628 23.4785H32.3253C33.8461 23.4785 34.0951 23.4026 34.7204 22.7496C35.2203 22.2275 35.4182 21.7485 35.4182 21.0603C35.4182 20.5323 35.3972 20.1001 35.3972 20.1001C35.3972 20.1001 36.2549 20.3046 36.6941 20.5549C37.1914 20.8381 37.4931 21.2181 37.4942 21.5627C37.495 21.8667 37.3334 22.2503 37.135 22.4148C36.9369 22.5796 36.6915 23.3834 36.5902 24.201C36.4359 25.444 36.1879 25.9734 35.0775 27.4326C34.2496 28.5206 33.7302 29.5359 33.7302 29.5359C33.7302 29.5359 33.4706 28.4279 33.3446 28.0784C33.2364 27.7782 33.1675 27.2757 32.9556 26.8658C32.7234 26.416 32.2342 26.0171 31.7221 25.8593C31.3471 25.7438 30.9747 25.7041 29.4454 25.6991C28.926 25.719 28.0602 25.8593 27.4411 25.8593C27.1195 25.8593 26.8244 25.8145 26.5462 25.7722L26.5423 25.7717L26.531 25.7699L25.8097 25.6991C23.8621 25.6991 23.1299 25.7823 22.5174 26.3954C22.0216 26.8916 21.7674 27.4672 21.6674 28.3196L21.5249 29.5359L20.0607 27.6117C18.8443 26.0134 18.5639 25.4453 18.4052 24.2582C18.3003 23.472 18.0533 22.5981 17.857 22.3161C17.6604 22.0344 17.4997 21.617 17.4997 21.3888C17.4997 21.1607 17.8796 20.7849 18.3437 20.5536C18.8077 20.3225 19.5772 20.1117 19.5772 20.1117V21.0603ZM31.7179 29.678C31.4193 28.9587 30.9318 28.2149 30.6347 28.0249C30.3377 27.8349 29.335 27.6208 28.4066 27.5491C27.4782 27.4776 26.2512 27.5012 25.6799 27.6018C25.1086 27.7024 24.483 27.8827 24.2895 28.0026C24.096 28.1226 23.7187 28.7032 23.4512 29.2929C23.1835 29.8828 22.962 30.5759 22.9589 30.8329C22.9552 31.1336 23.3468 31.4792 24.0568 31.8018C24.8741 32.1729 25.7523 32.3046 27.4411 32.3088C28.907 32.3124 30.0595 32.1734 30.6672 31.9192C31.1874 31.7017 31.7587 31.4026 31.9368 31.2547C32.1921 31.0426 32.1456 30.7079 31.7179 29.678Z" fill="black"/>
</g>
</svg>
