<svg width="32" height="32" viewBox="0 0 32 32" fill="none" xmlns="http://www.w3.org/2000/svg">
<g id="material-symbols:arrow-circle-up-rounded" clip-path="url(#clip0_20531_886)">
<path id="Vector" opacity="0.1" d="M16 22.4C16.4533 22.4 16.8336 22.2464 17.1408 21.9392C17.448 21.632 17.6011 21.2523 17.6 20.8V15.68L19.04 17.12C19.3333 17.4133 19.7067 17.56 20.16 17.56C20.6133 17.56 20.9867 17.4133 21.28 17.12C21.5733 16.8267 21.72 16.4533 21.72 16C21.72 15.5467 21.5733 15.1733 21.28 14.88L17.12 10.72C16.96 10.56 16.7867 10.4469 16.6 10.3808C16.4133 10.3147 16.2133 10.2811 16 10.28C15.7867 10.28 15.5867 10.3136 15.4 10.3808C15.2133 10.448 15.04 10.5611 14.88 10.72L10.72 14.88C10.4267 15.1733 10.28 15.5467 10.28 16C10.28 16.4533 10.4267 16.8267 10.72 17.12C11.0133 17.4133 11.3867 17.56 11.84 17.56C12.2933 17.56 12.6667 17.4133 12.96 17.12L14.4 15.68V20.8C14.4 21.2533 14.5536 21.6336 14.8608 21.9408C15.168 22.248 15.5477 22.4011 16 22.4ZM16 32C13.7867 32 11.7067 31.5797 9.76 30.7392C7.81333 29.8987 6.12 28.7589 4.68 27.32C3.24 25.88 2.10027 24.1867 1.2608 22.24C0.421333 20.2933 0.00106667 18.2133 0 16C0 13.7867 0.420267 11.7067 1.2608 9.76C2.10133 7.81333 3.24107 6.12 4.68 4.68C6.12 3.24 7.81333 2.10027 9.76 1.2608C11.7067 0.421333 13.7867 0.00106667 16 0C18.2133 0 20.2933 0.420267 22.24 1.2608C24.1867 2.10133 25.88 3.24107 27.32 4.68C28.76 6.12 29.9003 7.81333 30.7408 9.76C31.5813 11.7067 32.0011 13.7867 32 16C32 18.2133 31.5797 20.2933 30.7392 22.24C29.8987 24.1867 28.7589 25.88 27.32 27.32C25.88 28.76 24.1867 29.9003 22.24 30.7408C20.2933 31.5813 18.2133 32.0011 16 32Z" fill="#74A2B2"/>
</g>
<defs>
<clipPath id="clip0_20531_886">
<rect width="32" height="32" fill="white"/>
</clipPath>
</defs>
</svg>
