<svg width="32" height="32" viewBox="0 0 32 32" fill="none" xmlns="http://www.w3.org/2000/svg">
<path d="M14.6871 16.1283C14.3072 16.888 15.1132 17.694 15.873 17.3141V17.3141C15.9579 17.2717 16.0355 17.2158 16.1027 17.1486L24.1262 9.125C24.4714 8.77982 24.4714 8.22018 24.1263 7.875V7.875C23.7811 7.52982 23.2214 7.52982 22.8763 7.875L14.8527 15.8986C14.7855 15.9658 14.7296 16.0433 14.6871 16.1283V16.1283ZM13.0445 21.8641C12.2392 22.0871 11.4983 21.6066 10.9666 20.9619V20.9619C10.4249 20.3049 9.93343 19.5637 10.1812 18.7491L11.4951 14.4301C11.5974 14.0938 11.7865 13.7903 12.0435 13.5504L17.8383 8.13914C18.2103 7.79174 18.2484 7.21505 17.9252 6.82177V6.82177C17.5635 6.38148 16.9009 6.34913 16.4979 6.75208L10.1065 13.1435C9.87251 13.3775 9.70021 13.6659 9.60511 13.983L7.06729 22.4424C6.60961 23.968 8.03203 25.3904 9.55764 24.9327L18.017 22.3949C18.334 22.2998 18.6225 22.1275 18.8565 21.8935L25.7411 15.0089C25.9069 14.8431 26 14.6183 26 14.3839V14.3839C26 13.5965 25.048 13.2022 24.4912 13.759L18.0405 20.2107C17.7963 20.455 17.493 20.6318 17.1601 20.724L13.0445 21.8641Z" fill="#74A2B2"/>
</svg>
