<svg width="220" height="152" viewBox="0 0 220 152" fill="none" xmlns="http://www.w3.org/2000/svg">
<ellipse cx="110" cy="0.494125" rx="151.81" ry="150.773" fill="url(#paint0_radial_20531_1071)" fill-opacity="0.2"/>
<ellipse cx="109.502" cy="49.4336" rx="97.5566" ry="96.8902" fill="url(#paint1_radial_20531_1071)" fill-opacity="0.2"/>
<mask id="mask0_20531_1071" style="mask-type:alpha" maskUnits="userSpaceOnUse" x="79" y="19" width="62" height="62">
<ellipse cx="110" cy="49.928" rx="30.362" ry="30.1546" fill="#D9D9D9"/>
</mask>
<g mask="url(#mask0_20531_1071)">
<path fill-rule="evenodd" clip-rule="evenodd" d="M108.81 46.6991L109.531 46.7699L109.542 46.7717C109.286 46.7328 109.045 46.6963 108.81 46.6991ZM108.412 51.1188C107.917 50.9116 107.511 50.2092 107.511 50.2092C107.511 50.2092 108.583 50.1959 110.498 50.1959C112.412 50.1959 113.484 50.2092 113.484 50.2092C113.484 50.2092 113.079 50.9116 112.584 51.1188C112.088 51.3259 111.15 51.4953 110.498 51.4953C109.846 51.4953 108.907 51.3259 108.412 51.1188ZM93.2284 80.0823V69.1673V58.2523H110.498H127.767V69.1673V80.0823H110.498H93.2284Z" fill="black"/>
<path fill-rule="evenodd" clip-rule="evenodd" d="M108.651 21.8634C107.92 21.9733 106.73 22.2605 106.005 22.5011C105.281 22.742 103.958 23.411 103.067 23.9874C102.176 24.5638 100.827 25.6704 100.07 26.4464C99.3129 27.2224 98.2396 28.5273 97.6846 29.3462C97.1294 30.1648 96.3179 31.5442 95.8811 32.4112C95.4443 33.2782 94.6686 35.1906 94.1573 36.6608C93.6457 38.1312 92.9939 40.4808 92.7085 41.8821C92.3646 43.5713 92.1925 45.424 92.1982 47.378C92.2044 49.5579 92.3293 50.6645 92.6778 51.6253C92.937 52.34 93.2229 53.1001 93.313 53.3145C93.4353 53.6056 92.9565 53.9507 91.422 54.6768C90.1557 55.2761 88.7651 56.2072 87.7983 57.1028C86.9356 57.9022 85.8745 59.1774 85.4403 59.9368C85.0064 60.6962 84.4189 62.2253 84.1354 63.3348C83.7001 65.0378 83.6199 66.2166 83.6199 70.8981V76.444H87.5121H91.4043L91.4724 66.5035L91.5404 56.563H96.2847H101.029L100.31 56.0505C99.9143 55.7686 98.9218 54.906 98.1043 54.1334C97.2868 53.3605 96.3226 52.1357 95.9619 51.4111C95.563 50.6104 95.3059 49.6512 95.3059 48.9651C95.3059 48.3347 95.5482 47.3531 95.8546 46.7421C96.1564 46.1405 96.6441 45.3847 96.9386 45.0633C97.233 44.7418 97.5517 44.4785 97.6467 44.4785C97.7418 44.4785 97.955 44.7764 98.1207 45.1405C98.2866 45.5045 98.4222 46.1231 98.4222 46.515C98.4222 46.9066 98.6302 47.6322 98.8847 48.127C99.1389 48.6216 100.351 50.3152 101.578 51.8906C103.318 54.124 104.116 54.9253 105.205 55.529C106.581 56.2914 106.661 56.3031 110.498 56.3031C114.336 56.3031 114.414 56.2917 115.793 55.5274C116.904 54.9112 117.692 54.1103 119.623 51.6292C120.96 49.9119 122.161 48.1559 122.292 47.7271C122.423 47.2982 122.599 46.5293 122.685 46.0181C122.77 45.5069 122.991 44.8811 123.176 44.6277C123.482 44.2088 123.605 44.3005 124.52 45.6306C125.338 46.8188 125.548 47.3773 125.637 48.5987C125.725 49.8285 125.627 50.337 125.096 51.3841C124.739 52.0884 123.762 53.3114 122.926 54.1014C122.089 54.8915 121.081 55.7686 120.686 56.0505L119.967 56.563H124.711H129.455L129.523 66.5035L129.591 76.444H133.483H137.376V70.8082C137.376 66.4999 137.277 64.7706 136.956 63.4665C136.726 62.5283 136.173 61.059 135.728 60.2014C135.282 59.3438 134.318 58.0483 133.584 57.3224C132.85 56.5966 131.738 55.7072 131.112 55.3457C130.486 54.9845 129.414 54.4785 128.728 54.2215C127.765 53.86 127.524 53.6602 127.665 53.3395C127.765 53.1113 128.07 52.2942 128.342 51.5234C128.71 50.4805 128.837 49.4137 128.837 47.3526C128.837 45.5807 128.645 43.6381 128.303 41.9587C128.009 40.5151 127.35 38.1312 126.838 36.6608C126.327 35.1906 125.551 33.2782 125.114 32.4112C124.678 31.5442 123.866 30.1648 123.311 29.3462C122.756 28.5273 121.683 27.2224 120.925 26.4464C120.168 25.6704 118.803 24.5529 117.891 23.963C116.979 23.373 115.468 22.6682 114.534 22.3967C113.599 22.1251 112.192 21.8491 111.407 21.7833C110.621 21.7176 109.381 21.7537 108.651 21.8634ZM102.577 42.0603C102.577 42.7485 102.775 43.2275 103.275 43.7496C103.901 44.4039 104.148 44.4785 105.685 44.4785H107.398L108.94 42.9187L110.483 41.3589L112.055 42.9187L113.628 44.4785H115.325C116.846 44.4785 117.095 44.4026 117.72 43.7496C118.22 43.2275 118.418 42.7485 118.418 42.0603C118.418 41.5323 118.397 41.1001 118.397 41.1001C118.397 41.1001 119.255 41.3046 119.694 41.5549C120.191 41.8381 120.493 42.2181 120.494 42.5627C120.495 42.8667 120.333 43.2503 120.135 43.4148C119.937 43.5796 119.691 44.3834 119.59 45.201C119.436 46.444 119.188 46.9734 118.078 48.4326C117.25 49.5206 116.73 50.5359 116.73 50.5359C116.73 50.5359 116.471 49.4279 116.345 49.0784C116.236 48.7782 116.167 48.2757 115.956 47.8658C115.723 47.416 115.234 47.0171 114.722 46.8593C114.347 46.7438 113.975 46.7041 112.445 46.6991C111.926 46.719 111.06 46.8593 110.441 46.8593C110.12 46.8593 109.824 46.8145 109.546 46.7722L109.542 46.7717L109.531 46.7699L108.81 46.6991C106.862 46.6991 106.13 46.7823 105.517 47.3954C105.022 47.8916 104.767 48.4672 104.667 49.3196L104.525 50.5359L103.061 48.6117C101.844 47.0134 101.564 46.4453 101.405 45.2582C101.3 44.472 101.053 43.5981 100.857 43.3161C100.66 43.0344 100.5 42.617 100.5 42.3888C100.5 42.1607 100.88 41.7849 101.344 41.5536C101.808 41.3225 102.577 41.1117 102.577 41.1117V42.0603ZM114.718 50.678C114.419 49.9587 113.932 49.2149 113.635 49.0249C113.338 48.8349 112.335 48.6208 111.407 48.5491C110.478 48.4776 109.251 48.5012 108.68 48.6018C108.109 48.7024 107.483 48.8827 107.29 49.0026C107.096 49.1226 106.719 49.7032 106.451 50.2929C106.183 50.8828 105.962 51.5759 105.959 51.8329C105.955 52.1336 106.347 52.4792 107.057 52.8018C107.874 53.1729 108.752 53.3046 110.441 53.3088C111.907 53.3124 113.06 53.1734 113.667 52.9192C114.187 52.7017 114.759 52.4026 114.937 52.2547C115.192 52.0426 115.146 51.7079 114.718 50.678Z" fill="black"/>
</g>
<defs>
<radialGradient id="paint0_radial_20531_1071" cx="0" cy="0" r="1" gradientUnits="userSpaceOnUse" gradientTransform="translate(109.502 -20.7624) rotate(89.8342) scale(172.03 173.213)">
<stop stop-color="#5ED3F3"/>
<stop offset="0.078125" stop-color="#5ED3F3" stop-opacity="0.661404"/>
<stop offset="0.296875" stop-color="#5ED3F3" stop-opacity="0.415152"/>
<stop offset="0.567708" stop-color="#5ED3F3" stop-opacity="0.193058"/>
<stop offset="0.776042" stop-color="#5ED3F3" stop-opacity="0.109375"/>
<stop offset="1" stop-color="#5ED3F3" stop-opacity="0"/>
</radialGradient>
<radialGradient id="paint1_radial_20531_1071" cx="0" cy="0" r="1" gradientUnits="userSpaceOnUse" gradientTransform="translate(109.502 49.4336) rotate(90) scale(58.6931 59.0968)">
<stop stop-color="#5ED3F3" stop-opacity="0.9"/>
<stop offset="0.255459" stop-color="#5ED3F3" stop-opacity="0.53"/>
<stop offset="0.472717" stop-color="#5ED3F3" stop-opacity="0.35"/>
<stop offset="0.696558" stop-color="#5ED3F3" stop-opacity="0.19"/>
<stop offset="1" stop-color="#5ED3F3" stop-opacity="0"/>
</radialGradient>
</defs>
</svg>
