<svg width="32" height="32" viewBox="0 0 32 32" fill="none" xmlns="http://www.w3.org/2000/svg">
<path d="M2.57102 29.8471C1.95887 30.0958 1.37733 30.0411 0.826399 29.683C0.275466 29.325 0 28.8047 0 28.1222V21.1756C0 20.7404 0.12243 20.3519 0.367289 20.01C0.612147 19.6682 0.948828 19.4506 1.37733 19.3573L10.8455 16.9703C11.8529 16.7163 11.8528 15.2849 10.8455 15.031L1.37733 12.6439C0.948828 12.5506 0.612147 12.3331 0.367289 11.9912C0.12243 11.6493 0 11.2608 0 10.8256V3.87906C0 3.19528 0.275466 2.67437 0.826399 2.31632C1.37733 1.95826 1.95887 1.90418 2.57102 2.15407L30.8522 14.2756C31.6174 14.6175 32 15.1925 32 16.0006C32 16.8087 31.6174 17.3837 30.8522 17.7256L2.57102 29.8471Z" fill="#74A2B2"/>
</svg>
