<svg width="32" height="32" viewBox="0 0 32 32" fill="none" xmlns="http://www.w3.org/2000/svg">
<path d="M30.299 10.685L21.8459 9.96579C21.4793 9.93459 21.1593 9.70454 21.0131 9.36686L17.7172 1.75789C17.0816 0.273087 14.913 0.273087 14.2773 1.75789L10.9817 9.38334C10.8353 9.72201 10.5144 9.95258 10.1467 9.98318L1.71426 10.685C0.0690922 10.8134 -0.603929 12.8297 0.648638 13.8929L7.04254 19.3252C7.3292 19.5688 7.45494 19.9526 7.36796 20.3186L5.45326 28.3743C5.07936 29.9508 6.818 31.1973 8.23882 30.3541L15.4877 26.0724C15.8019 25.8867 16.1924 25.8871 16.5063 26.0733L23.7557 30.3724C25.1765 31.2156 26.9152 29.9691 26.5413 28.3927L24.6262 20.3183C24.5394 19.9525 24.6652 19.5689 24.9517 19.3255L31.3459 13.8929C32.5985 12.8297 31.9441 10.8134 30.299 10.685ZM16.5069 22.6457C16.1926 22.4593 15.8018 22.4592 15.4874 22.6453L10.9965 25.3037C10.2369 25.7534 9.30975 25.0701 9.51436 24.2114L10.8374 18.659L6.45854 14.9344C5.78149 14.3585 6.13604 13.2516 7.02168 13.1763L12.2221 12.7339C12.5896 12.7026 12.9101 12.4715 13.0559 12.1327L15.0802 7.42734C15.4269 6.62147 16.5692 6.62077 16.9169 7.42621L18.957 12.1521C19.103 12.4903 19.4232 12.7209 19.7903 12.7522L24.9915 13.1946C25.8772 13.2699 26.2317 14.3769 25.5547 14.9527L21.6428 18.2801C21.3562 18.5238 21.2307 18.9077 21.3179 19.2736L22.4983 24.2273C22.703 25.0864 21.7751 25.7697 21.0155 25.3192L16.5069 22.6457Z" fill="#74A2B2"/>
</svg>
